# AST/ASF file generated using VICON BodyLanguage
# -----------------------------------------------
:version 1.10
:name VICON
:units
  mass 1.0
  length 0.45
  angle deg
:documentation
   .ast/.asf automatically generated from VICON data using
   VICON BodyBuilder and BodyLanguage model FoxedUp or BRILLIANT.MOD
:root
   order TX TY TZ RX RY RZ
   axis XYZ
   position 0 0 0  
   orientation 0 -0 0 
:bonedata
  begin
     id 1 
     name lhipjoint
     direction 0.500677 -0.737119 0.453848 
     length 2.34727 
     axis 0 -0 0  XYZ
  end
  begin
     id 2 
     name lfemur
     direction 0.34202 -0.939693 0  
     length 7.53653  
     axis 0 -0 20  XYZ
    dof rx ry rz
    limits (-160.0 20.0)
           (-70.0 70.0)
           (-60.0 70.0)
  end
  begin
     id 3 
     name ltibia
     direction 0.34202 -0.939693 0   
     length 6.85572   
     axis 0 -0 20   XYZ
    dof rx
    limits (-10.0 170.0)
  end
  begin
     id 4 
     name lfoot
     direction 0.155313 -0.426718 0.890949   
     length 2.18324   
     axis -90 -1.13533e-015 20   XYZ
    dof rx rz
    limits (-45.0 90.0)
           (-70.0 20.0)
  end
  begin
     id 5 
     name ltoes
     direction 1.53474e-011 -4.21647e-011 1   
     length 1.06748   
     axis -90 -1.13533e-015 20   XYZ
    dof rx
    limits (-90.0 20.0)
  end
  begin
     id 6 
     name rhipjoint
     direction -0.632471 -0.659587 0.406111   
     length 2.62319  
     axis 0 -0 0  XYZ 
  end
  begin
     id 7 
     name rfemur
     direction -0.34202 -0.939693 0   
     length 7.21735   
     axis 0 -0 -20   XYZ
    dof rx ry rz
    limits (-160.0 20.0)
           (-70.0 70.0)
           (-70.0 60.0)
  end
  begin
     id 8 
     name rtibia
     direction -0.34202 -0.939693 0   
     length 7.02558   
     axis 0 -0 -20   XYZ
    dof rx
    limits (-10.0 170.0)
 end
 begin
     id 9 
     name rfoot
     direction -0.16057 -0.441164 0.882945   
     length 2.10014  
     axis -90 1.13533e-015 -20   XYZ
    dof rx rz
    limits (-45.0 90.0)
           (-20.0 70.0)
  end
  begin
     id 10 
     name rtoes
     direction -1.53553e-011 -4.2192e-011 1   
     length 1.02554   
     axis -90 1.13533e-015 -20   XYZ
    dof rx
    limits (-90.0 20.0)
  end
  begin
     id 11 
     name lowerback
     direction 0.0401429 0.998861 -0.0258085   
     length 1.80848   
     axis 0 -0 0   XYZ
    dof rx ry rz
    limits (-20.0 45.0)
           (-30.0 30.0)
           (-30.0 30.0)
  end
  begin
     id 12 
     name upperback
     direction -0.0130978 0.999914 -0.000352645   
     length 1.8116   
     axis 0 -0 0   XYZ
    dof rx ry rz
    limits (-20.0 45.0)
           (-30.0 30.0)
           (-30.0 30.0)
  end
  begin
     id 13 
     name thorax
     direction -0.0300198 0.999453 0.0138573   
     length 1.81778   
     axis 0 -0 0   XYZ
    dof rx ry rz
    limits (-20.0 45.0)
           (-30.0 30.0)
           (-30.0 30.0)
  end
  begin
     id 14 
     name lowerneck
     direction -0.0401726 0.999191 -0.00173647   
     length 2.10594   
     axis 0 -0 0   XYZ
    dof rx ry rz
    limits (-20.0 45.0)
           (-30.0 30.0)
           (-30.0 30.0)
  end
  begin
     id 15 
     name upperneck
     direction 0.0119835 0.998501 0.0534085   
     length 2.07325   
     axis 0 -0 0   XYZ
    dof rx ry rz
    limits (-20.0 45.0)
           (-30.0 30.0)
           (-30.0 30.0)
  end
  begin
     id 16
     name head
     direction 0.00628309 0.999826 0.0175921  
     length 2.15096  
     axis 0 -0 0   XYZ
    dof rx ry rz
    limits (-20.0 45.0)
           (-30.0 30.0)
           (-30.0 30.0)
  end
  begin
     id 17 
     name lclavicle
     direction 0.895501 0.429681 -0.115981  
     length 4.18092  
     axis 0 -0 0   XYZ
    dof ry rz
    limits (-20.0 10.0)
           (0.0 20.0)
  end
  begin
     id 18 
     name lhumerus
     direction 1 -4.48961e-011 -3.38433e-028   
     length 5.77237   
     axis 180 -30 -90   XYZ
    dof rx ry rz
    limits (-60.0 90.0)
           (-90.0 90.0)
           (-90.0 90.0)
  end
  begin
     id 19
     name lradius
     direction 1 -4.4901e-011 1.11983e-026   
     length 2.91878   
     axis 180 -30 -90   XYZ
    dof rx
    limits (-10.0 170.0)
  end
  begin
     id 20
     name lwrist
     direction 1 -4.48934e-011 1.88176e-026   
     length 1.45939   
     axis -1.23311e-014 90 90   XYZ
    dof ry
    limits (-180.0 0.0)
 end
  begin
     id 21 
     name lhand
     direction 1 -4.4895e-011 3.76352e-026   
     length 1.06566   
     axis -2.40147e-014 90 90   XYZ
    dof rx rz
    limits (-90.0 90.0)
           (-45.0 45.0)
  end
  begin
     id 22 
     name lfingers
     direction 1 -4.49005e-011 7.52705e-026   
     length 0.859162   
     axis -4.80295e-014 90 90   XYZ
    dof rx
    limits (0.0 90.0)
  end
  begin
     id 23
     name lthumb
     direction 0.707107 -6.34885e-011 0.707107   
     length 1.23359   
     axis -90 45 -9.86935e-015   XYZ
    dof rx rz
    limits (-45.0 45.0)
           (-45.0 45.0)
  end
  begin
     id 24 
     name rclavicle
     direction -0.91006 0.40451 -0.0903492   
     length 4.23293  
     axis 0 -0 0   XYZ 
    dof ry rz
    limits (-10.0 20.0)
           (-20.0 0.0)
  end
  begin
     id 25 
     name rhumerus
     direction -1 -4.4897e-011 1.7415e-027  
     length 5.49854   
     axis 180 30 90   XYZ
    dof rx ry rz
    limits (-90.0 60.0)
           (-90.0 90.0)
           (-90.0 90.0)
  end
  begin
     id 26 
     name rradius
     direction -1 -4.48963e-011 1.21259e-026   
     length 3.1186   
     axis 180 30 90   XYZ
    dof rx
    limits (-10.0 170.0)
  end
  begin
     id 27 
     name rwrist
     direction -1 -4.48967e-011 1.88176e-026   
     length 1.5593   
     axis -1.23311e-014 -90 -90   XYZ
    dof ry
    limits (-180.0 0.0)
  end
  begin
     id 28
     name rhand
     direction -1 -4.4895e-011 3.76352e-026   
     length 0.71207   
     axis -2.40147e-014 -90 -90   XYZ
    dof rx rz
    limits (-90.0 90.0)
           (-45.0 45.0)
  end
  begin
     id 29
     name rfingers
     direction -1 -4.49005e-011 7.52705e-026   
     length 0.574089   
     axis -4.80295e-014 -90 -90   XYZ
    dof rx
    limits (0.0 90.0)
  end
  begin
     id 30
     name rthumb
     direction -0.707107 -6.34982e-011 0.707107   
     length 0.824281   
     axis -90 -45 9.86935e-015   XYZ
    dof rx rz
    limits (-45.0 45.0)
           (-45.0 45.0)
  end
:hierarchy
  begin
    root lhipjoint rhipjoint lowerback
    lhipjoint lfemur
    lfemur ltibia
    ltibia lfoot
    lfoot ltoes
    rhipjoint rfemur
    rfemur rtibia
    rtibia rfoot
    rfoot rtoes
    lowerback upperback
    upperback thorax
    thorax lowerneck lclavicle rclavicle
    lowerneck upperneck
    upperneck head
    lclavicle lhumerus
    lhumerus lradius
    lradius lwrist
    lwrist lhand lthumb
    lhand lfingers
    rclavicle rhumerus
    rhumerus rradius
    rradius rwrist
    rwrist rhand rthumb
    rhand rfingers
  end

#!OML:ASF C:\ViconDB\ViconDB\414\Spring2016\042216\male.ASF
:FULLY-SPECIFIED
:DEGREES
513
root 42.0411 17.7998 11.3399 -16.3271 81.6415 -15.442
lowerback -2.15246 -0.475076 6.54738
upperback -1.13357 -0.743251 -0.864177
thorax -0.0585017 -0.400083 -4.58396
lowerneck -3.27174 5.29008 -1.10267
upperneck 8.11527 7.30703 -0.90907
head 3.16316 3.58772 0.169343
rclavicle -4.93359e-014 -4.17448e-015
rhumerus -30.7823 -8.04433 -91.3578
rradius 26.0606
rwrist 33.7979
rhand 12.9703 -18.4126
rfingers 7.12502
rthumb 37.9378 -44.2287
lclavicle -4.93359e-014 -4.17448e-015
lhumerus -38.6177 20.6512 79.7657
lradius 31.5402
lwrist -18.4516
lhand -5.26198 9.77591
lfingers 7.12502
lthumb 20.5417 38.7091
rfemur 2.64223 2.33847 24.3913
rtibia 33.6287
rfoot -8.01255 -1.5278
rtoes -31.1562
lfemur -15.7564 -0.490181 -19.6784
ltibia 24.4619
lfoot -12.7058 10.7763
ltoes -11.2669
514
root 42.1411 17.8159 11.3294 -15.1022 81.6024 -14.1983
lowerback -2.0283 -0.486407 6.57386
upperback -1.18327 -0.748518 -0.975694
thorax -0.182302 -0.40892 -4.71331
lowerneck -3.29388 5.23372 -1.05236
upperneck 8.18352 7.23879 -0.9968
head 3.19673 3.5516 0.13263
rclavicle -3.73964e-015 -1.98785e-014
rhumerus -31.0917 -8.79011 -90.9876
rradius 25.4268
rwrist 35.0738
rhand 13.1354 -18.0238
rfingers 7.12502
rthumb 38.0937 -43.7975
lclavicle -3.73964e-015 -1.98785e-014
lhumerus -38.0323 20.2145 80.0311
lradius 31.5362
lwrist -18.259
lhand -5.10645 10.5112
lfingers 7.12502
lthumb 20.6911 39.4282
rfemur 1.71797 2.27665 23.9707
rtibia 34.9088
rfoot -8.51069 -3.0848
rtoes -30.1937
lfemur -15.2214 -0.718792 -19.925
ltibia 24.185
lfoot -12.9893 11.1731
ltoes -10.8773
515
root 42.2435 17.8332 11.3222 -14.0153 81.5687 -13.0392
lowerback -1.99422 -0.514637 6.49789
upperback -1.15039 -0.783978 -1.00844
thorax -0.171285 -0.42537 -4.70479
lowerneck -3.19532 5.13522 -1.13099
upperneck 8.01882 7.1177 -1.15177
head 3.12494 3.48577 0.0854139
rclavicle -5.48397e-014 6.95746e-015
rhumerus -31.3252 -9.23752 -90.6218
rradius 25.0142
rwrist 35.4839
rhand 13.269 -18.1892
rfingers 7.12502
rthumb 38.2199 -43.9283
lclavicle -5.48397e-014 6.95746e-015
lhumerus -37.4684 20.5781 80.1171
lradius 31.578
lwrist -18.6336
lhand -5.08959 10.6508
lfingers 7.12502
lthumb 20.7073 39.566
rfemur 0.878938 2.16622 23.5801
rtibia 36.0444
rfoot -9.33431 -4.68878
rtoes -29.9143
lfemur -14.5638 -0.813273 -20.1912
ltibia 23.7525
lfoot -12.9869 11.4013
ltoes -11.2427
516
root 42.3312 17.8513 11.3212 -14.2896 81.8146 -13.3572
lowerback -1.86058 -0.652322 6.46792
upperback -1.21257 -0.955651 -1.0086
thorax -0.332302 -0.518145 -4.68784
lowerneck -3.16634 5.04835 -1.11876
upperneck 7.99097 7.00881 -1.26618
head 3.11516 3.42855 0.0415254
rclavicle -3.0998e-014 -1.59028e-015
rhumerus -31.6946 -9.71373 -90.3102
rradius 24.6584
rwrist 36.2798
rhand 13.0268 -18.2512
rfingers 7.12502
rthumb 37.9912 -44.0528
lclavicle -3.0998e-014 -1.59028e-015
lhumerus -36.8598 19.9262 80.5521
lradius 31.7559
lwrist -18.1304
lhand -5.32964 10.6335
lfingers 7.12502
lthumb 20.4767 39.5738
rfemur -0.0202585 2.00275 23.4331
rtibia 36.8879
rfoot -10.3871 -6.73898
rtoes -29.4802
lfemur -14.1148 -0.925371 -20.2934
ltibia 23.3819
lfoot -13.168 11.3343
ltoes -11.0543
517
root 42.4197 17.864 11.3253 -14.8124 81.8697 -13.8332
lowerback -1.71241 -0.696469 6.48019
upperback -1.19288 -1.00542 -0.994577
thorax -0.401474 -0.545099 -4.67858
lowerneck -3.21574 4.94171 -1.2552
upperneck 7.96303 6.86524 -1.17309
head 3.10558 3.35614 0.0898202
rclavicle -1.34925e-014 3.37934e-015
rhumerus -31.9734 -10.3772 -89.9067
rradius 24.3933
rwrist 36.9191
rhand 13.0725 -18.2164
rfingers 7.12502
rthumb 38.0343 -44.0062
lclavicle -1.34925e-014 3.37934e-015
lhumerus -36.304 19.7905 80.7198
lradius 31.9082
lwrist -18.4467
lhand -5.32165 10.3489
lfingers 7.12502
lthumb 20.4843 39.2882
rfemur -0.782692 2.14767 23.4191
rtibia 37.4776
rfoot -11.3695 -8.36186
rtoes -28.0572
lfemur -13.4813 -0.908596 -20.2881
ltibia 23.0343
lfoot -13.3031 11.3205
ltoes -11.0155
518
root 42.5051 17.875 11.3282 -15.0305 81.9809 -14.0224
lowerback -1.64751 -0.785655 6.3971
upperback -1.15571 -1.12033 -0.984203
thorax -0.412221 -0.60162 -4.62101
lowerneck -3.23583 4.83351 -1.31015
upperneck 7.90672 6.72515 -1.21948
head 3.08987 3.28347 0.0787562
rclavicle -8.07563e-015 -2.18663e-015
rhumerus -32.2947 -10.9569 -89.5287
rradius 24.3207
rwrist 37.3472
rhand 13.2497 -18.1409
rfingers 7.12502
rthumb 38.2016 -43.8849
lclavicle -8.07563e-015 -2.18663e-015
lhumerus -35.6783 19.2772 81.1222
lradius 32.2531
lwrist -17.9079
lhand -5.22306 10.8609
lfingers 7.12502
lthumb 20.5791 39.7901
rfemur -1.47779 2.2479 23.3331
rtibia 37.8044
rfoot -12.1692 -9.97954
rtoes -27.4715
lfemur -13.0294 -0.836234 -20.3522
ltibia 22.7992
lfoot -13.5977 11.3338
ltoes -10.7478
519
root 42.5891 17.8913 11.3379 -14.9608 82.0697 -13.9758
lowerback -1.57778 -0.829846 6.26953
upperback -1.16556 -1.1728 -0.977558
thorax -0.465144 -0.629075 -4.54104
lowerneck -3.17878 4.74287 -1.36966
upperneck 7.79125 6.59876 -1.18614
head 3.03607 3.22141 0.0910048
rclavicle 4.27387e-015 4.17448e-015
rhumerus -32.5971 -11.3135 -89.264
rradius 24.3353
rwrist 36.7018
rhand 13.4101 -18.5609
rfingers 7.12502
rthumb 38.353 -44.2632
lclavicle 4.27387e-015 4.17448e-015
lhumerus -35.1612 19.2635 81.2319
lradius 32.3739
lwrist -18.2722
lhand -5.22762 10.6481
lfingers 7.12502
lthumb 20.5747 39.5778
rfemur -2.20207 2.5157 23.231
rtibia 37.9189
rfoot -13.0585 -11.4107
rtoes -26.9474
lfemur -12.6879 -0.835703 -20.4123
ltibia 22.6158
lfoot -13.7718 11.2657
ltoes -10.8303
